{
    "asset" : {
        "generator" : "Khronos glTF Blender I/O v0.9.36",
        "version" : "2.0"
    },
    "scene" : 0,
    "scenes" : [
        {
            "name" : "Scene",
            "nodes" : [
                1,
                4,
                6,
                9,
                11,
                14
            ]
        }
    ],
    "nodes" : [
        {
            "name" : "Nitrogen_ball",
            "scale" : [
                0.75,
                0.75,
                0.75
            ]
        },
        {
            "children" : [
                0
            ],
            "name" : "Nitrogen_mesh",
            "translation" : [
                -0.2808999717235565,
                0,
                0.03911997377872467
            ]
        },
        {
            "mesh" : 0,
            "name" : "Nitrogen_sticks_cup"
        },
        {
            "mesh" : 1,
            "name" : "Nitrogen_sticks_cylinder"
        },
        {
            "children" : [
                2,
                3
            ],
            "mesh" : 2,
            "name" : "Nitrogen_sticks_mesh",
            "translation" : [
                -0.2808999717235565,
                0,
                0.03911997377872467
            ]
        },
        {
            "name" : "Carbon_ball",
            "scale" : [
                0.7699999809265137,
                0.7699999809265137,
                0.7699999809265137
            ]
        },
        {
            "children" : [
                5
            ],
            "name" : "Carbon_mesh",
            "translation" : [
                -0.2808999717235565,
                0,
                0.03911997377872467
            ]
        },
        {
            "mesh" : 3,
            "name" : "Carbon_sticks_cup"
        },
        {
            "mesh" : 4,
            "name" : "Carbon_sticks_cylinder"
        },
        {
            "children" : [
                7,
                8
            ],
            "mesh" : 5,
            "name" : "Carbon_sticks_mesh",
            "translation" : [
                -0.2808999717235565,
                0,
                0.03911997377872467
            ]
        },
        {
            "name" : "Hydrogen_ball",
            "scale" : [
                0.3199999928474426,
                0.3199999928474426,
                0.3199999928474426
            ]
        },
        {
            "children" : [
                10
            ],
            "name" : "Hydrogen_mesh",
            "translation" : [
                -0.2808999717235565,
                0,
                0.03911997377872467
            ]
        },
        {
            "mesh" : 6,
            "name" : "Hydrogen_sticks_cup"
        },
        {
            "mesh" : 7,
            "name" : "Hydrogen_sticks_cylinder"
        },
        {
            "children" : [
                12,
                13
            ],
            "mesh" : 8,
            "name" : "Hydrogen_sticks_mesh",
            "translation" : [
                -0.2808999717235565,
                0,
                0.03911997377872467
            ]
        }
    ],
    "materials" : [
        {
            "doubleSided" : true,
            "name" : "Nitrogen",
            "pbrMetallicRoughness" : {}
        },
        {
            "doubleSided" : true,
            "name" : "Carbon",
            "pbrMetallicRoughness" : {}
        },
        {
            "doubleSided" : true,
            "name" : "Hydrogen",
            "pbrMetallicRoughness" : {}
        }
    ],
    "meshes" : [
        {
            "name" : "Nitrogen_sticks_cup",
            "primitives" : [
                {
                    "attributes" : {
                        "POSITION" : 0,
                        "NORMAL" : 1
                    },
                    "indices" : 2,
                    "material" : 0
                }
            ]
        },
        {
            "name" : "Nitrogen_sticks_cylinder",
            "primitives" : [
                {
                    "attributes" : {
                        "POSITION" : 3,
                        "NORMAL" : 4
                    },
                    "indices" : 5,
                    "material" : 0
                }
            ]
        },
        {
            "name" : "Sticks_Nitrogen",
            "primitives" : [
                {
                    "attributes" : {
                        "POSITION" : 6,
                        "NORMAL" : 7
                    },
                    "indices" : 8
                }
            ]
        },
        {
            "name" : "Carbon_sticks_cup",
            "primitives" : [
                {
                    "attributes" : {
                        "POSITION" : 9,
                        "NORMAL" : 10
                    },
                    "indices" : 2,
                    "material" : 1
                }
            ]
        },
        {
            "name" : "Carbon_sticks_cylinder",
            "primitives" : [
                {
                    "attributes" : {
                        "POSITION" : 11,
                        "NORMAL" : 12
                    },
                    "indices" : 5,
                    "material" : 1
                }
            ]
        },
        {
            "name" : "Sticks_Carbon",
            "primitives" : [
                {
                    "attributes" : {
                        "POSITION" : 13,
                        "NORMAL" : 14
                    },
                    "indices" : 15
                }
            ]
        },
        {
            "name" : "Hydrogen_sticks_cup",
            "primitives" : [
                {
                    "attributes" : {
                        "POSITION" : 16,
                        "NORMAL" : 17
                    },
                    "indices" : 2,
                    "material" : 2
                }
            ]
        },
        {
            "name" : "Hydrogen_sticks_cylinder",
            "primitives" : [
                {
                    "attributes" : {
                        "POSITION" : 18,
                        "NORMAL" : 19
                    },
                    "indices" : 5,
                    "material" : 2
                }
            ]
        },
        {
            "name" : "Sticks_Hydrogen",
            "primitives" : [
                {
                    "attributes" : {
                        "POSITION" : 20,
                        "NORMAL" : 21
                    },
                    "indices" : 22
                }
            ]
        }
    ],
    "accessors" : [
        {
            "bufferView" : 0,
            "componentType" : 5126,
            "count" : 40,
            "max" : [
                0.20000000298023224,
                0.02500000037252903,
                0.19931690394878387
            ],
            "min" : [
                -0.19727227091789246,
                -0.02500000037252903,
                -0.19931690394878387
            ],
            "type" : "VEC3"
        },
        {
            "bufferView" : 1,
            "componentType" : 5126,
            "count" : 40,
            "type" : "VEC3"
        },
        {
            "bufferView" : 2,
            "componentType" : 5123,
            "count" : 114,
            "type" : "SCALAR"
        },
        {
            "bufferView" : 3,
            "componentType" : 5126,
            "count" : 76,
            "max" : [
                0.20000000298023224,
                0.02500000037252903,
                0.19931690394878387
            ],
            "min" : [
                -0.19727227091789246,
                -0.02500000037252903,
                -0.19931690394878387
            ],
            "type" : "VEC3"
        },
        {
            "bufferView" : 4,
            "componentType" : 5126,
            "count" : 76,
            "type" : "VEC3"
        },
        {
            "bufferView" : 5,
            "componentType" : 5123,
            "count" : 114,
            "type" : "SCALAR"
        },
        {
            "bufferView" : 6,
            "componentType" : 5126,
            "count" : 108,
            "max" : [
                0.7828133702278137,
                0.20000000298023224,
                1.136080026626587
            ],
            "min" : [
                -0.22101345658302307,
                -0.20000000298023224,
                0.3702455163002014
            ],
            "type" : "VEC3"
        },
        {
            "bufferView" : 7,
            "componentType" : 5126,
            "count" : 108,
            "type" : "VEC3"
        },
        {
            "bufferView" : 8,
            "componentType" : 5123,
            "count" : 162,
            "type" : "SCALAR"
        },
        {
            "bufferView" : 9,
            "componentType" : 5126,
            "count" : 40,
            "max" : [
                0.20000000298023224,
                0.02500000037252903,
                0.19931690394878387
            ],
            "min" : [
                -0.19727227091789246,
                -0.02500000037252903,
                -0.19931690394878387
            ],
            "type" : "VEC3"
        },
        {
            "bufferView" : 10,
            "componentType" : 5126,
            "count" : 40,
            "type" : "VEC3"
        },
        {
            "bufferView" : 11,
            "componentType" : 5126,
            "count" : 76,
            "max" : [
                0.20000000298023224,
                0.02500000037252903,
                0.19931690394878387
            ],
            "min" : [
                -0.19727227091789246,
                -0.02500000037252903,
                -0.19931690394878387
            ],
            "type" : "VEC3"
        },
        {
            "bufferView" : 12,
            "componentType" : 5126,
            "count" : 76,
            "type" : "VEC3"
        },
        {
            "bufferView" : 13,
            "componentType" : 5126,
            "count" : 432,
            "max" : [
                1.4607000350952148,
                0.20000003278255463,
                0.664635419845581
            ],
            "min" : [
                -0.8988999128341675,
                -0.20000003278255463,
                -1.1074351072311401
            ],
            "type" : "VEC3"
        },
        {
            "bufferView" : 14,
            "componentType" : 5126,
            "count" : 432,
            "type" : "VEC3"
        },
        {
            "bufferView" : 15,
            "componentType" : 5123,
            "count" : 648,
            "type" : "SCALAR"
        },
        {
            "bufferView" : 16,
            "componentType" : 5126,
            "count" : 40,
            "max" : [
                0.20000000298023224,
                0.02500000037252903,
                0.19931690394878387
            ],
            "min" : [
                -0.19727227091789246,
                -0.02500000037252903,
                -0.19931690394878387
            ],
            "type" : "VEC3"
        },
        {
            "bufferView" : 17,
            "componentType" : 5126,
            "count" : 40,
            "type" : "VEC3"
        },
        {
            "bufferView" : 18,
            "componentType" : 5126,
            "count" : 76,
            "max" : [
                0.20000000298023224,
                0.02500000037252903,
                0.19931690394878387
            ],
            "min" : [
                -0.19727227091789246,
                -0.02500000037252903,
                -0.19931690394878387
            ],
            "type" : "VEC3"
        },
        {
            "bufferView" : 19,
            "componentType" : 5126,
            "count" : 76,
            "type" : "VEC3"
        },
        {
            "bufferView" : 20,
            "componentType" : 5126,
            "count" : 140,
            "max" : [
                1.7936859130859375,
                0.20000000298023224,
                1.4860799312591553
            ],
            "min" : [
                -1.2318859100341797,
                -0.20000000298023224,
                -1.3907853364944458
            ],
            "type" : "VEC3"
        },
        {
            "bufferView" : 21,
            "componentType" : 5126,
            "count" : 140,
            "type" : "VEC3"
        },
        {
            "bufferView" : 22,
            "componentType" : 5123,
            "count" : 210,
            "type" : "SCALAR"
        }
    ],
    "bufferViews" : [
        {
            "buffer" : 0,
            "byteLength" : 480,
            "byteOffset" : 0
        },
        {
            "buffer" : 0,
            "byteLength" : 480,
            "byteOffset" : 480
        },
        {
            "buffer" : 0,
            "byteLength" : 228,
            "byteOffset" : 960
        },
        {
            "buffer" : 0,
            "byteLength" : 912,
            "byteOffset" : 1188
        },
        {
            "buffer" : 0,
            "byteLength" : 912,
            "byteOffset" : 2100
        },
        {
            "buffer" : 0,
            "byteLength" : 228,
            "byteOffset" : 3012
        },
        {
            "buffer" : 0,
            "byteLength" : 1296,
            "byteOffset" : 3240
        },
        {
            "buffer" : 0,
            "byteLength" : 1296,
            "byteOffset" : 4536
        },
        {
            "buffer" : 0,
            "byteLength" : 324,
            "byteOffset" : 5832
        },
        {
            "buffer" : 0,
            "byteLength" : 480,
            "byteOffset" : 6156
        },
        {
            "buffer" : 0,
            "byteLength" : 480,
            "byteOffset" : 6636
        },
        {
            "buffer" : 0,
            "byteLength" : 912,
            "byteOffset" : 7116
        },
        {
            "buffer" : 0,
            "byteLength" : 912,
            "byteOffset" : 8028
        },
        {
            "buffer" : 0,
            "byteLength" : 5184,
            "byteOffset" : 8940
        },
        {
            "buffer" : 0,
            "byteLength" : 5184,
            "byteOffset" : 14124
        },
        {
            "buffer" : 0,
            "byteLength" : 1296,
            "byteOffset" : 19308
        },
        {
            "buffer" : 0,
            "byteLength" : 480,
            "byteOffset" : 20604
        },
        {
            "buffer" : 0,
            "byteLength" : 480,
            "byteOffset" : 21084
        },
        {
            "buffer" : 0,
            "byteLength" : 912,
            "byteOffset" : 21564
        },
        {
            "buffer" : 0,
            "byteLength" : 912,
            "byteOffset" : 22476
        },
        {
            "buffer" : 0,
            "byteLength" : 1680,
            "byteOffset" : 23388
        },
        {
            "buffer" : 0,
            "byteLength" : 1680,
            "byteOffset" : 25068
        },
        {
            "buffer" : 0,
            "byteLength" : 420,
            "byteOffset" : 26748
        }
    ],
    "buffers" : [
        {
            "byteLength" : 27168,
            "uri" : "data:application/octet-stream;base64,"
        }
    ]
}
